<svg xmlns="http://www.w3.org/2000/svg" width="1500" height="1500" fill="none"><path fill="url(#a)" d="M0 0h1500v1500H0z"/><path fill="#E7E4DE" d="M71.705 99.165h13.7l24.69 88.524 25.895-88.524h13.249l24.991 88.524 24.841-88.524h13.55L181.758 204.55h-15.657l-24.089-83.556-23.937 83.556h-15.658L71.705 99.165Zm188.217 27.701c9.335 0 16.862 2.81 22.583 8.431 5.721 5.621 8.582 14.453 8.582 26.497v42.757h-12.346v-42.004c0-7.929-1.806-13.951-5.42-18.066-3.613-4.216-8.782-6.323-15.506-6.323-7.126 0-12.797 2.509-17.013 7.527-4.115 5.019-6.172 11.844-6.172 20.475v38.391h-12.346V99.165h12.346v41.251c2.509-4.015 5.821-7.277 9.936-9.786 4.216-2.509 9.334-3.764 15.356-3.764Zm41.18 39.294c0-7.829 1.505-14.704 4.516-20.625 3.112-5.922 7.427-10.489 12.948-13.701 5.52-3.312 11.843-4.968 18.969-4.968 7.026 0 13.249 1.456 18.669 4.366 5.419 2.911 9.685 7.126 12.796 12.647 3.112 5.52 4.768 11.993 4.969 19.421 0 1.104-.101 2.86-.301 5.269h-59.619v1.054c.201 7.527 2.509 13.549 6.926 18.066 4.416 4.517 10.187 6.775 17.313 6.775 5.52 0 10.187-1.355 14.001-4.065 3.915-2.81 6.524-6.675 7.829-11.593h12.496c-1.506 7.829-5.27 14.253-11.292 19.271-6.022 4.918-13.399 7.377-22.131 7.377-7.628 0-14.302-1.606-20.023-4.818-5.721-3.312-10.187-7.929-13.399-13.85-3.112-6.022-4.667-12.898-4.667-20.626Zm60.07-7.829c-.602-6.523-3.061-11.592-7.377-15.205-4.216-3.613-9.585-5.42-16.109-5.42-5.822 0-10.94 1.907-15.356 5.721-4.417 3.814-6.926 8.782-7.528 14.904h46.37Zm62.866-30.562v12.045h-6.173c-7.327 0-12.596 2.459-15.808 7.377-3.111 4.918-4.667 10.99-4.667 18.216v39.144h-12.345v-76.782h10.689l1.656 11.593c2.208-3.513 5.069-6.323 8.581-8.431 3.513-2.108 8.381-3.162 14.604-3.162h3.463Zm1.157 38.391c0-7.829 1.506-14.704 4.517-20.625 3.111-5.922 7.427-10.489 12.947-13.701 5.52-3.312 11.843-4.968 18.969-4.968 7.026 0 13.249 1.456 18.669 4.366 5.42 2.911 9.685 7.126 12.797 12.647 3.111 5.52 4.767 11.993 4.968 19.421 0 1.104-.1 2.86-.301 5.269h-59.619v1.054c.201 7.527 2.51 13.549 6.926 18.066 4.416 4.517 10.187 6.775 17.313 6.775 5.52 0 10.188-1.355 14.002-4.065 3.914-2.81 6.523-6.675 7.828-11.593h12.496c-1.506 7.829-5.269 14.253-11.291 19.271-6.022 4.918-13.399 7.377-22.131 7.377-7.628 0-14.303-1.606-20.024-4.818-5.721-3.312-10.187-7.929-13.399-13.85-3.111-6.022-4.667-12.898-4.667-20.626Zm60.07-7.829c-.602-6.523-3.061-11.592-7.377-15.205-4.215-3.613-9.585-5.42-16.109-5.42-5.821 0-10.94 1.907-15.356 5.721s-6.926 8.782-7.528 14.904h46.37Zm66.437-60.22c2.308 0 4.215.753 5.721 2.258 1.505 1.506 2.258 3.413 2.258 5.721 0 2.309-.753 4.216-2.258 5.721-1.506 1.506-3.413 2.258-5.721 2.258-2.309 0-4.216-.752-5.721-2.258-1.506-1.505-2.258-3.412-2.258-5.721 0-2.308.752-4.215 2.258-5.721 1.505-1.505 3.412-2.258 5.721-2.258Zm-6.173 29.658h12.345v76.782h-12.345v-76.782Zm63.885-.903c9.334 0 16.811 2.81 22.432 8.431 5.721 5.621 8.581 14.453 8.581 26.497v42.757h-12.345v-42.004c0-7.929-1.807-13.951-5.42-18.066-3.513-4.216-8.631-6.323-15.356-6.323-7.227 0-12.897 2.509-17.012 7.527-4.115 5.019-6.173 11.844-6.173 20.475v38.391h-12.345v-76.782h10.689l1.656 10.389c5.821-7.528 14.252-11.292 25.293-11.292Zm81.38 0c9.334 0 16.811 2.81 22.432 8.431 5.721 5.621 8.581 14.453 8.581 26.497v42.757h-12.345v-42.004c0-7.929-1.806-13.951-5.42-18.066-3.513-4.216-8.631-6.323-15.356-6.323-7.226 0-12.897 2.509-17.012 7.527-4.115 5.019-6.173 11.844-6.173 20.475v38.391h-12.345v-76.782h10.689l1.656 10.389c5.821-7.528 14.252-11.292 25.293-11.292Zm79.122 78.588c-7.427 0-14.052-1.656-19.873-4.968-5.721-3.312-10.187-7.929-13.399-13.851-3.212-5.922-4.818-12.747-4.818-20.475 0-7.728 1.606-14.553 4.818-20.475 3.212-5.922 7.678-10.538 13.399-13.851 5.821-3.312 12.446-4.968 19.873-4.968 7.427 0 14.001 1.656 19.722 4.968 5.821 3.313 10.338 7.929 13.55 13.851 3.211 5.922 4.817 12.747 4.817 20.475 0 7.728-1.606 14.553-4.817 20.475-3.212 5.922-7.729 10.539-13.55 13.851-5.721 3.312-12.295 4.968-19.722 4.968Zm0-10.99c5.018 0 9.434-1.205 13.248-3.613 3.915-2.409 6.926-5.772 9.033-10.087 2.108-4.316 3.162-9.184 3.162-14.604s-1.054-10.288-3.162-14.603c-2.107-4.316-5.118-7.678-9.033-10.087-3.814-2.409-8.23-3.614-13.248-3.614-5.019 0-9.485 1.205-13.399 3.614-3.814 2.409-6.775 5.771-8.883 10.087-2.108 4.315-3.161 9.183-3.161 14.603s1.053 10.288 3.161 14.604c2.108 4.315 5.069 7.678 8.883 10.087 3.914 2.408 8.38 3.613 13.399 3.613Zm38.616-66.695h13.249l23.185 62.78L868 127.769h12.947l-28.755 76.782h-14.904l-28.756-76.782Zm147.492 65.49v11.292h-6.774c-4.918 0-8.431-1.004-10.539-3.011-2.108-2.008-3.212-4.968-3.312-8.883-5.922 8.531-14.503 12.797-25.744 12.797-8.532 0-15.407-2.007-20.626-6.022-5.119-4.015-7.678-9.485-7.678-16.41 0-7.728 2.609-13.65 7.829-17.765 5.319-4.115 12.997-6.173 23.034-6.173h22.583v-5.269c0-5.018-1.707-8.933-5.119-11.743-3.312-2.81-7.979-4.216-14.001-4.216-5.32 0-9.736 1.205-13.249 3.614-3.412 2.308-5.52 5.42-6.323 9.334H883.76c.903-7.528 4.215-13.399 9.936-17.615 5.821-4.215 13.349-6.323 22.583-6.323 9.836 0 17.414 2.409 22.733 7.227 5.42 4.717 8.13 11.542 8.13 20.475v33.121c0 3.714 1.706 5.57 5.119 5.57h3.763Zm-21.227-23.787H911.01c-11.442 0-17.163 4.266-17.163 12.797 0 3.814 1.505 6.875 4.516 9.184 3.011 2.308 7.076 3.462 12.195 3.462 7.528 0 13.449-1.957 17.765-5.871 4.316-4.015 6.474-9.284 6.474-15.808v-3.764Zm32.826-30.411h-13.851v-11.292h13.851v-21.528h12.345v21.528h19.421v11.292h-19.421v45.316c0 3.212.602 5.52 1.807 6.925 1.304 1.305 3.513 1.957 6.624 1.957h13.401v11.292h-14.154c-7.226 0-12.395-1.606-15.507-4.818-3.011-3.212-4.516-8.28-4.516-15.206v-45.466Zm46.117-40.95c2.31 0 4.22.753 5.72 2.258 1.51 1.506 2.26 3.413 2.26 5.721 0 2.309-.75 4.216-2.26 5.721-1.5 1.506-3.41 2.258-5.72 2.258-2.31 0-4.21-.752-5.72-2.258-1.5-1.505-2.26-3.412-2.26-5.721 0-2.308.76-4.215 2.26-5.721 1.51-1.505 3.41-2.258 5.72-2.258Zm-6.17 29.658h12.34v76.782h-12.34v-76.782Zm61.63 77.685c-7.43 0-14.06-1.656-19.88-4.968-5.72-3.312-10.18-7.929-13.4-13.851-3.21-5.922-4.81-12.747-4.81-20.475 0-7.728 1.6-14.553 4.81-20.475 3.22-5.922 7.68-10.538 13.4-13.851 5.82-3.312 12.45-4.968 19.88-4.968 7.42 0 14 1.656 19.72 4.968 5.82 3.313 10.34 7.929 13.55 13.851 3.21 5.922 4.82 12.747 4.82 20.475 0 7.728-1.61 14.553-4.82 20.475-3.21 5.922-7.73 10.539-13.55 13.851-5.72 3.312-12.3 4.968-19.72 4.968Zm0-10.99c5.01 0 9.43-1.205 13.24-3.613 3.92-2.409 6.93-5.772 9.04-10.087 2.11-4.316 3.16-9.184 3.16-14.604s-1.05-10.288-3.16-14.603c-2.11-4.316-5.12-7.678-9.04-10.087-3.81-2.409-8.23-3.614-13.24-3.614-5.02 0-9.49 1.205-13.4 3.614-3.82 2.409-6.78 5.771-8.89 10.087-2.1 4.315-3.16 9.183-3.16 14.603s1.06 10.288 3.16 14.604c2.11 4.315 5.07 7.678 8.89 10.087 3.91 2.408 8.38 3.613 13.4 3.613Zm86.87-67.598c9.33 0 16.81 2.81 22.43 8.431 5.72 5.621 8.58 14.453 8.58 26.497v42.757h-12.34v-42.004c0-7.929-1.81-13.951-5.42-18.066-3.52-4.216-8.63-6.323-15.36-6.323-7.23 0-12.9 2.509-17.01 7.527-4.12 5.019-6.17 11.844-6.17 20.475v38.391h-12.35v-76.782h10.69l1.66 10.389c5.82-7.528 14.25-11.292 25.29-11.292Zm-994.486 128c8.632 0 15.607 2.71 20.927 8.13 5.419 5.42 8.129 13.851 8.129 25.293v44.262h-12.345v-43.51c0-7.427-1.606-13.098-4.817-17.012-3.112-3.914-7.578-5.871-13.4-5.871-6.423 0-11.492 2.258-15.205 6.774-3.613 4.517-5.42 10.69-5.42 18.518v41.101h-12.345v-43.51c0-7.427-1.606-13.098-4.818-17.012-3.212-3.914-7.778-5.871-13.7-5.871-6.223 0-11.191 2.408-14.905 7.226-3.613 4.717-5.42 10.94-5.42 18.668v40.499H75.92v-76.782h10.69l1.655 10.539c5.52-7.628 12.998-11.442 22.433-11.442 5.52 0 10.388 1.255 14.603 3.764 4.316 2.409 7.528 6.022 9.635 10.84 5.521-9.736 14.403-14.604 26.648-14.604Zm39.172 39.294c0-7.829 1.505-14.704 4.516-20.625 3.112-5.922 7.427-10.489 12.948-13.701 5.52-3.312 11.843-4.968 18.969-4.968 7.026 0 13.249 1.456 18.668 4.366 5.42 2.911 9.686 7.126 12.797 12.647 3.112 5.52 4.768 11.993 4.969 19.421 0 1.104-.101 2.86-.302 5.269h-59.618v1.054c.201 7.527 2.509 13.549 6.925 18.066 4.417 4.517 10.188 6.775 17.314 6.775 5.52 0 10.187-1.355 14.001-4.065 3.914-2.81 6.524-6.675 7.829-11.593h12.496c-1.506 7.829-5.27 14.253-11.292 19.271-6.022 4.918-13.399 7.377-22.131 7.377-7.628 0-14.302-1.606-20.023-4.818-5.721-3.312-10.188-7.929-13.399-13.85-3.112-6.022-4.667-12.898-4.667-20.626Zm60.07-7.829c-.603-6.523-3.062-11.592-7.377-15.205-4.216-3.613-9.585-5.42-16.109-5.42-5.822 0-10.94 1.907-15.357 5.721-4.416 3.814-6.925 8.782-7.527 14.904h46.37Zm21.163 7.829c0-7.829 1.505-14.704 4.516-20.625 3.112-5.922 7.427-10.489 12.948-13.701 5.52-3.312 11.843-4.968 18.969-4.968 7.026 0 13.249 1.456 18.669 4.366 5.419 2.911 9.685 7.126 12.796 12.647 3.112 5.52 4.768 11.993 4.969 19.421 0 1.104-.101 2.86-.301 5.269h-59.619v1.054c.201 7.527 2.509 13.549 6.926 18.066 4.416 4.517 10.187 6.775 17.313 6.775 5.52 0 10.187-1.355 14.001-4.065 3.915-2.81 6.524-6.675 7.829-11.593h12.496c-1.506 7.829-5.27 14.253-11.292 19.271-6.022 4.918-13.399 7.377-22.131 7.377-7.628 0-14.302-1.606-20.023-4.818-5.721-3.312-10.187-7.929-13.399-13.85-3.112-6.022-4.667-12.898-4.667-20.626Zm60.07-7.829c-.602-6.523-3.061-11.592-7.377-15.205-4.216-3.613-9.585-5.42-16.109-5.42-5.822 0-10.94 1.907-15.356 5.721-4.417 3.814-6.926 8.782-7.528 14.904h46.37Zm28.109-19.27h-13.85v-11.292h13.85v-21.528h12.346v21.528h19.421v11.292h-19.421v45.316c0 3.212.602 5.52 1.806 6.925 1.305 1.305 3.513 1.957 6.625 1.957h13.399v11.292h-14.152c-7.227 0-12.396-1.606-15.507-4.818-3.011-3.212-4.517-8.28-4.517-15.206v-45.466Zm49.582 40.197c.201 4.617 2.209 8.381 6.023 11.291 3.914 2.911 8.932 4.366 15.055 4.366 5.42 0 9.786-1.053 13.098-3.161 3.412-2.208 5.118-5.069 5.118-8.582 0-3.011-.803-5.319-2.408-6.925-1.606-1.606-3.714-2.71-6.324-3.312-2.509-.602-6.122-1.204-10.839-1.807-6.625-.803-12.044-1.856-16.26-3.161-4.215-1.305-7.628-3.363-10.237-6.173-2.61-2.911-3.915-6.875-3.915-11.893 0-4.517 1.255-8.532 3.764-12.045 2.61-3.512 6.123-6.222 10.539-8.129 4.416-2.008 9.384-3.011 14.904-3.011 9.033 0 16.36 2.107 21.981 6.323 5.721 4.215 8.882 10.237 9.485 18.066h-12.346c-.502-4.015-2.459-7.327-5.871-9.936-3.413-2.61-7.678-3.915-12.797-3.915-5.219 0-9.435 1.104-12.646 3.312-3.212 2.108-4.818 4.918-4.818 8.431 0 2.61.753 4.617 2.258 6.022 1.506 1.405 3.413 2.359 5.721 2.861 2.409.502 6.022 1.054 10.84 1.656 6.725.803 12.245 1.907 16.561 3.312 4.416 1.405 7.929 3.663 10.538 6.775 2.71 3.111 4.065 7.327 4.065 12.646 0 4.617-1.355 8.682-4.065 12.195-2.71 3.513-6.373 6.223-10.99 8.13-4.617 1.907-9.736 2.86-15.356 2.86-10.037 0-18.117-2.308-24.239-6.925-6.022-4.617-9.083-11.041-9.184-19.271h12.345Zm96.164-13.098c0-7.829 1.506-14.704 4.517-20.625 3.111-5.922 7.427-10.489 12.947-13.701 5.52-3.312 11.843-4.968 18.97-4.968 7.025 0 13.248 1.456 18.668 4.366 5.42 2.911 9.685 7.126 12.797 12.647 3.111 5.52 4.767 11.993 4.968 19.421 0 1.104-.1 2.86-.301 5.269h-59.618v1.054c.2 7.527 2.509 13.549 6.925 18.066 4.416 4.517 10.187 6.775 17.313 6.775 5.521 0 10.188-1.355 14.002-4.065 3.914-2.81 6.524-6.675 7.828-11.593h12.496c-1.505 7.829-5.269 14.253-11.291 19.271-6.022 4.918-13.399 7.377-22.131 7.377-7.628 0-14.303-1.606-20.024-4.818-5.721-3.312-10.187-7.929-13.399-13.85-3.111-6.022-4.667-12.898-4.667-20.626Zm60.07-7.829c-.602-6.523-3.061-11.592-7.377-15.205-4.215-3.613-9.585-5.42-16.109-5.42-5.821 0-10.94 1.907-15.356 5.721s-6.926 8.782-7.528 14.904h46.37Zm23.873-59.166h12.345v105.386h-12.345V227.165Zm23.537 66.995c0-7.829 1.505-14.704 4.516-20.625 3.112-5.922 7.428-10.489 12.948-13.701 5.52-3.312 11.843-4.968 18.969-4.968 7.026 0 13.249 1.456 18.669 4.366 5.419 2.911 9.685 7.126 12.796 12.647 3.112 5.52 4.768 11.993 4.969 19.421 0 1.104-.101 2.86-.301 5.269h-59.619v1.054c.201 7.527 2.509 13.549 6.926 18.066 4.416 4.517 10.187 6.775 17.313 6.775 5.52 0 10.187-1.355 14.001-4.065 3.915-2.81 6.524-6.675 7.829-11.593h12.496c-1.506 7.829-5.27 14.253-11.292 19.271-6.022 4.918-13.399 7.377-22.131 7.377-7.628 0-14.302-1.606-20.023-4.818-5.721-3.312-10.187-7.929-13.399-13.85-3.112-6.022-4.667-12.898-4.667-20.626Zm60.07-7.829c-.602-6.523-3.061-11.592-7.377-15.205-4.216-3.613-9.585-5.42-16.109-5.42-5.822 0-10.94 1.907-15.356 5.721-4.417 3.814-6.926 8.782-7.528 14.904h46.37Zm96.74-30.562v73.018c0 23.185-12.697 34.777-38.09 34.777-9.936 0-18.066-2.258-24.389-6.774-6.223-4.517-9.836-10.94-10.84-19.271h12.647c1.003 4.818 3.563 8.531 7.678 11.141 4.115 2.609 9.384 3.914 15.808 3.914 16.56 0 24.841-8.079 24.841-24.239v-9.033c-5.521 9.435-14.303 14.152-26.347 14.152-7.126 0-13.499-1.556-19.12-4.667-5.52-3.111-9.886-7.628-13.098-13.55-3.111-5.921-4.667-12.947-4.667-21.077 0-7.728 1.556-14.553 4.667-20.475 3.212-5.922 7.628-10.538 13.249-13.851 5.62-3.312 11.943-4.968 18.969-4.968 6.223 0 11.542 1.255 15.958 3.764 4.417 2.409 7.879 5.871 10.389 10.388l1.656-13.249h10.689Zm-37.488 66.695c4.918 0 9.284-1.154 13.098-3.463 3.915-2.409 6.926-5.721 9.034-9.936 2.107-4.316 3.161-9.184 3.161-14.604 0-5.52-1.054-10.438-3.161-14.754-2.108-4.416-5.119-7.828-9.034-10.237-3.814-2.409-8.18-3.614-13.098-3.614-7.627 0-13.8 2.66-18.517 7.98-4.617 5.219-6.926 11.994-6.926 20.324 0 8.331 2.309 15.156 6.926 20.475 4.717 5.219 10.89 7.829 18.517 7.829Zm123.107-1.205v11.292h-6.775c-4.918 0-8.431-1.004-10.539-3.011-2.107-2.008-3.211-4.968-3.312-8.883-5.921 8.531-14.503 12.797-25.744 12.797-8.531 0-15.406-2.007-20.626-6.022-5.118-4.015-7.678-9.485-7.678-16.41 0-7.728 2.61-13.65 7.829-17.765 5.319-4.115 12.998-6.173 23.034-6.173h22.583v-5.269c0-5.018-1.706-8.933-5.119-11.743-3.312-2.81-7.979-4.216-14.001-4.216-5.319 0-9.736 1.205-13.248 3.614-3.413 2.308-5.521 5.42-6.324 9.334h-12.345c.903-7.528 4.216-13.399 9.937-17.615 5.821-4.215 13.348-6.323 22.582-6.323 9.836 0 17.414 2.409 22.734 7.227 5.419 4.717 8.129 11.542 8.129 20.475v33.121c0 3.714 1.707 5.57 5.119 5.57h3.764Zm-21.228-23.787h-23.787c-11.442 0-17.163 4.266-17.163 12.797 0 3.814 1.506 6.875 4.517 9.184 3.011 2.308 7.076 3.462 12.194 3.462 7.528 0 13.45-1.957 17.765-5.871 4.316-4.015 6.474-9.284 6.474-15.808v-3.764Zm65.345-42.606c9.335 0 16.812 2.81 22.433 8.431 5.721 5.621 8.581 14.453 8.581 26.497v42.757h-12.345v-42.004c0-7.929-1.807-13.951-5.42-18.066-3.513-4.216-8.632-6.323-15.356-6.323-7.227 0-12.898 2.509-17.013 7.527-4.115 5.019-6.172 11.844-6.172 20.475v38.391h-12.345v-76.782h10.689l1.656 10.389c5.821-7.528 14.252-11.292 25.292-11.292Zm112.24 51.188c-1.6 8.531-5.37 15.256-11.29 20.174-5.92 4.817-13.447 7.226-22.58 7.226-7.428 0-13.952-1.656-19.572-4.968-5.621-3.312-9.987-7.929-13.098-13.851-3.112-6.022-4.667-12.897-4.667-20.625 0-7.729 1.555-14.554 4.667-20.475 3.212-5.922 7.678-10.489 13.399-13.701 5.721-3.312 12.295-4.968 19.722-4.968 9.033 0 16.459 2.409 22.279 7.227 5.92 4.817 9.64 11.442 11.14 19.872h-12.49c-1.21-4.918-3.72-8.832-7.53-11.743-3.814-2.91-8.431-4.366-13.85-4.366-7.327 0-13.299 2.61-17.916 7.829-4.517 5.219-6.775 11.994-6.775 20.325 0 8.43 2.258 15.306 6.775 20.625 4.617 5.219 10.589 7.829 17.916 7.829 5.62 0 10.337-1.456 14.15-4.366 3.82-2.911 6.27-6.926 7.38-12.044h12.34Zm6.94-11.894c0-7.829 1.5-14.704 4.51-20.625 3.12-5.922 7.43-10.489 12.95-13.701 5.52-3.312 11.85-4.968 18.97-4.968 7.03 0 13.25 1.456 18.67 4.366 5.42 2.911 9.69 7.126 12.8 12.647 3.11 5.52 4.76 11.993 4.97 19.421 0 1.104-.1 2.86-.31 5.269h-59.61v1.054c.2 7.527 2.51 13.549 6.92 18.066 4.42 4.517 10.19 6.775 17.31 6.775 5.52 0 10.19-1.355 14.01-4.065 3.91-2.81 6.52-6.675 7.82-11.593h12.5c-1.51 7.829-5.27 14.253-11.29 19.271-6.02 4.918-13.4 7.377-22.13 7.377-7.63 0-14.3-1.606-20.03-4.818-5.72-3.312-10.18-7.929-13.39-13.85-3.12-6.022-4.67-12.898-4.67-20.626Zm60.07-7.829c-.6-6.523-3.06-11.592-7.38-15.205-4.21-3.613-9.58-5.42-16.11-5.42-5.82 0-10.94 1.907-15.35 5.721-4.42 3.814-6.93 8.782-7.53 14.904h46.37ZM82.093 354.111c2.308 0 4.215.753 5.72 2.258 1.506 1.506 2.259 3.413 2.259 5.721 0 2.309-.753 4.216-2.258 5.721-1.506 1.506-3.413 2.258-5.721 2.258-2.309 0-4.216-.752-5.721-2.258-1.506-1.505-2.258-3.412-2.258-5.721 0-2.308.752-4.215 2.258-5.721 1.505-1.505 3.412-2.258 5.72-2.258Zm-6.173 29.658h12.345v76.782H75.92v-76.782Zm63.885-.903c9.334 0 16.811 2.81 22.432 8.431 5.721 5.621 8.581 14.453 8.581 26.497v42.757h-12.345v-42.004c0-7.929-1.807-13.951-5.42-18.066-3.513-4.216-8.632-6.323-15.356-6.323-7.227 0-12.897 2.509-17.012 7.527-4.116 5.019-6.173 11.844-6.173 20.475v38.391h-12.345v-76.782h10.689l1.656 10.389c5.821-7.528 14.252-11.292 25.293-11.292Zm77.423 39.294c0-7.829 1.506-14.704 4.517-20.625 3.111-5.922 7.427-10.489 12.947-13.701 5.52-3.312 11.843-4.968 18.97-4.968 7.025 0 13.248 1.456 18.668 4.366 5.42 2.911 9.685 7.126 12.797 12.647 3.111 5.52 4.767 11.993 4.968 19.421 0 1.104-.1 2.86-.301 5.269h-59.619v1.054c.201 7.527 2.51 13.549 6.926 18.066 4.416 4.517 10.187 6.775 17.313 6.775 5.521 0 10.188-1.355 14.002-4.065 3.914-2.81 6.523-6.675 7.828-11.593h12.496c-1.505 7.829-5.269 14.253-11.291 19.271-6.022 4.918-13.399 7.377-22.131 7.377-7.628 0-14.303-1.606-20.024-4.818-5.721-3.312-10.187-7.929-13.399-13.85-3.111-6.022-4.667-12.898-4.667-20.626Zm60.07-7.829c-.602-6.523-3.061-11.592-7.377-15.205-4.215-3.613-9.585-5.42-16.109-5.42-5.821 0-10.94 1.907-15.356 5.721s-6.926 8.782-7.528 14.904h46.37Zm13.255-30.562h13.248l23.185 62.78 23.034-62.78h12.948l-28.756 76.782h-14.904l-28.755-76.782Zm72.969 38.391c0-7.829 1.505-14.704 4.516-20.625 3.112-5.922 7.428-10.489 12.948-13.701 5.52-3.312 11.843-4.968 18.969-4.968 7.026 0 13.249 1.456 18.669 4.366 5.42 2.911 9.685 7.126 12.797 12.647 3.111 5.52 4.767 11.993 4.968 19.421 0 1.104-.101 2.86-.301 5.269h-59.619v1.054c.201 7.527 2.509 13.549 6.926 18.066 4.416 4.517 10.187 6.775 17.313 6.775 5.52 0 10.187-1.355 14.001-4.065 3.915-2.81 6.524-6.675 7.829-11.593h12.496c-1.506 7.829-5.269 14.253-11.292 19.271-6.022 4.918-13.399 7.377-22.131 7.377-7.628 0-14.302-1.606-20.023-4.818-5.721-3.312-10.187-7.929-13.399-13.85-3.111-6.022-4.667-12.898-4.667-20.626Zm60.07-7.829c-.602-6.523-3.061-11.592-7.377-15.205-4.216-3.613-9.585-5.42-16.109-5.42-5.821 0-10.94 1.907-15.356 5.721-4.417 3.814-6.926 8.782-7.528 14.904h46.37Zm62.866-30.562v12.045h-6.173c-7.327 0-12.596 2.459-15.808 7.377-3.111 4.918-4.667 10.99-4.667 18.216v39.144h-12.345v-76.782h10.689l1.656 11.593c2.208-3.513 5.069-6.323 8.582-8.431 3.512-2.108 8.38-3.162 14.603-3.162h3.463Zm14.433 0 23.636 62.63 22.884-62.63h13.098l-35.38 89.729c-1.806 4.617-3.412 8.08-4.817 10.388-1.405 2.309-3.162 4.015-5.269 5.119-2.108 1.104-4.918 1.656-8.431 1.656h-14.754V479.37h10.99c2.409 0 4.215-.251 5.42-.753 1.204-.502 2.158-1.355 2.86-2.559.803-1.104 1.757-3.011 2.861-5.721l3.914-9.184-30.11-77.384h13.098Zm175.074-28.604v105.386h-10.69l-1.656-12.345c-6.423 8.832-15.205 13.248-26.346 13.248-7.126 0-13.5-1.556-19.12-4.667-5.52-3.111-9.886-7.628-13.098-13.55-3.112-5.921-4.667-12.947-4.667-21.077 0-7.728 1.555-14.553 4.667-20.475 3.212-5.922 7.628-10.538 13.248-13.851 5.621-3.312 11.944-4.968 18.97-4.968 6.223 0 11.542 1.154 15.958 3.463 4.416 2.208 7.879 5.269 10.388 9.184v-40.348h12.346Zm-37.488 95.299c4.918 0 9.284-1.154 13.098-3.463 3.915-2.409 6.926-5.721 9.033-9.936 2.108-4.316 3.162-9.184 3.162-14.604 0-5.52-1.054-10.438-3.162-14.754-2.107-4.416-5.118-7.828-9.033-10.237-3.814-2.409-8.18-3.614-13.098-3.614-7.628 0-13.8 2.66-18.518 7.98-4.617 5.219-6.925 11.994-6.925 20.324 0 8.331 2.308 15.156 6.925 20.475 4.718 5.219 10.89 7.829 18.518 7.829Zm48.584-28.304c0-7.829 1.505-14.704 4.516-20.625 3.112-5.922 7.427-10.489 12.948-13.701 5.52-3.312 11.843-4.968 18.969-4.968 7.026 0 13.249 1.456 18.668 4.366 5.42 2.911 9.686 7.126 12.797 12.647 3.112 5.52 4.768 11.993 4.969 19.421 0 1.104-.101 2.86-.302 5.269h-59.618v1.054c.201 7.527 2.509 13.549 6.925 18.066 4.417 4.517 10.188 6.775 17.314 6.775 5.52 0 10.187-1.355 14.001-4.065 3.914-2.81 6.524-6.675 7.829-11.593h12.496c-1.506 7.829-5.27 14.253-11.292 19.271-6.022 4.918-13.399 7.377-22.131 7.377-7.628 0-14.302-1.606-20.023-4.818-5.721-3.312-10.188-7.929-13.399-13.85-3.112-6.022-4.667-12.898-4.667-20.626Zm60.07-7.829c-.603-6.523-3.062-11.592-7.377-15.205-4.216-3.613-9.585-5.42-16.109-5.42-5.822 0-10.94 1.907-15.357 5.721-4.416 3.814-6.925 8.782-7.527 14.904h46.37Zm28.109-19.27h-13.85v-11.292h13.85v-21.528h12.346v21.528h19.421v11.292h-19.421v45.316c0 3.212.602 5.52 1.806 6.925 1.305 1.305 3.513 1.957 6.624 1.957h13.4v11.292h-14.152c-7.227 0-12.396-1.606-15.507-4.818-3.011-3.212-4.517-8.28-4.517-15.206v-45.466Zm110.584 54.198v11.292h-6.775c-4.918 0-8.431-1.004-10.538-3.011-2.108-2.008-3.212-4.968-3.313-8.883-5.921 8.531-14.503 12.797-25.744 12.797-8.531 0-15.406-2.007-20.626-6.022-5.118-4.015-7.678-9.485-7.678-16.41 0-7.728 2.61-13.65 7.829-17.765 5.32-4.115 12.998-6.173 23.034-6.173h22.583v-5.269c0-5.018-1.706-8.933-5.119-11.743-3.312-2.81-7.979-4.216-14.001-4.216-5.319 0-9.736 1.205-13.248 3.614-3.413 2.308-5.521 5.42-6.324 9.334h-12.345c.903-7.528 4.216-13.399 9.937-17.615 5.821-4.215 13.348-6.323 22.582-6.323 9.836 0 17.414 2.409 22.734 7.227 5.419 4.717 8.129 11.542 8.129 20.475v33.121c0 3.714 1.707 5.57 5.119 5.57h3.764Zm-21.228-23.787h-23.787c-11.442 0-17.163 4.266-17.163 12.797 0 3.814 1.506 6.875 4.517 9.184 3.011 2.308 7.076 3.462 12.194 3.462 7.528 0 13.45-1.957 17.765-5.871 4.316-4.015 6.474-9.284 6.474-15.808v-3.764Zm33.88-71.361c2.309 0 4.216.753 5.721 2.258 1.506 1.506 2.258 3.413 2.258 5.721 0 2.309-.752 4.216-2.258 5.721-1.505 1.506-3.412 2.258-5.721 2.258-2.308 0-4.215-.752-5.721-2.258-1.505-1.505-2.258-3.412-2.258-5.721 0-2.308.753-4.215 2.258-5.721 1.506-1.505 3.413-2.258 5.721-2.258Zm-6.172 29.658h12.345v76.782h-12.345v-76.782Zm26.246-28.604h12.345v105.386H918.55V355.165Zm24.741 97.858c0-2.509.803-4.516 2.409-6.022 1.606-1.606 3.663-2.409 6.173-2.409 2.509 0 4.566.803 6.172 2.409 1.606 1.506 2.409 3.513 2.409 6.022 0 2.509-.803 4.567-2.409 6.173-1.606 1.505-3.663 2.258-6.172 2.258-2.51 0-4.567-.753-6.173-2.258-1.606-1.606-2.409-3.664-2.409-6.173ZM131.03 1332.8h11.333l-44.736 83.5H84.982l-15.39-83.5h10.499l12.884 71.22 38.055-71.22Zm32.119 21.95c7.476 0 13.401 2.18 17.775 6.56 4.454 4.29 6.681 10.02 6.681 17.18 0 3.66-.318 6.88-.954 9.66h-47.003c-.079.56-.119 1.31-.119 2.27 0 4.93 1.511 9.14 4.533 12.64 3.102 3.5 7.396 5.25 12.884 5.25 4.692 0 8.391-1.03 11.095-3.1 2.704-2.15 4.97-5.25 6.799-9.31h9.902c-1.988 6.76-5.448 11.97-10.379 15.63-4.931 3.66-10.856 5.49-17.775 5.49-5.328 0-10.06-1.11-14.196-3.34-4.056-2.23-7.197-5.33-9.424-9.31-2.227-3.97-3.341-8.55-3.341-13.71 0-6.45 1.352-12.41 4.056-17.9 2.704-5.49 6.562-9.86 11.572-13.12 5.09-3.26 11.055-4.89 17.894-4.89Zm13.839 24.93c.079-.56.119-1.27.119-2.15 0-4.45-1.352-7.91-4.056-10.38-2.704-2.54-6.402-3.81-11.095-3.81-5.01 0-9.384 1.51-13.122 4.53-3.658 3.02-6.124 6.96-7.396 11.81h35.55Zm28.23-46.88H215l-14.792 83.5h-9.783l14.793-83.5Zm57.66 22.66h10.498l-33.522 60.84h-11.811l-12.048-60.84h10.259l9.544 49.63 27.08-49.63Zm31.933 61.56c-5.17 0-9.782-1.11-13.838-3.34-3.977-2.31-7.079-5.45-9.306-9.43-2.226-3.97-3.34-8.47-3.34-13.48 0-6.84 1.432-13 4.295-18.49 2.863-5.48 6.879-9.78 12.049-12.88 5.169-3.1 11.094-4.65 17.775-4.65 5.169 0 9.742 1.15 13.719 3.46 4.056 2.22 7.197 5.33 9.424 9.3 2.227 3.98 3.34 8.47 3.34 13.48 0 6.84-1.431 13.01-4.294 18.49-2.863 5.49-6.88 9.79-12.049 12.89-5.17 3.1-11.095 4.65-17.775 4.65Zm.477-8.71c4.613 0 8.709-1.19 12.287-3.58 3.659-2.46 6.482-5.72 8.47-9.78 1.989-4.14 2.983-8.63 2.983-13.48 0-5.33-1.591-9.66-4.772-13s-7.277-5.01-12.287-5.01c-4.613 0-8.749 1.23-12.407 3.69-3.579 2.39-6.363 5.65-8.351 9.79-1.988 4.05-2.982 8.51-2.982 13.36 0 5.33 1.551 9.66 4.652 13 3.181 3.34 7.317 5.01 12.407 5.01Zm41.091-65.8h14.429l-.606 3.27h-5.396l-2.304 13.04h-3.637l2.303-13.04h-5.395l.606-3.27Zm16.308 0h4.911l3.153 11.88 7.456-11.88h5.032l-2.91 16.31h-3.395l2.243-12.31-7.638 12.31h-2.971l-3.153-12.31-2.243 12.31h-3.395l2.91-16.31Z"/><defs><linearGradient id="a" x1="750" x2="750" y1="0" y2="1500" gradientUnits="userSpaceOnUse"><stop stop-color="#000201"/><stop offset="1" stop-color="#454F58"/></linearGradient></defs></svg>