<svg xmlns="http://www.w3.org/2000/svg" width="1500" height="2000" fill="none"><path fill="url(#a)" d="M0 0h1500v2000H0z"/><path fill="#E7E4DE" d="M624.798 945.682h17.143L574.27 1072h-19.128l-23.279-126.318h15.88l19.489 107.728 57.566-107.728Zm48.586 33.203c11.308 0 20.271 3.309 26.888 9.925 6.737 6.497 10.105 15.16 10.105 25.99 0 5.53-.481 10.4-1.444 14.61h-71.099c-.12.84-.18 1.99-.18 3.43 0 7.46 2.285 13.84 6.857 19.13 4.692 5.29 11.188 7.94 19.489 7.94 7.098 0 12.692-1.56 16.782-4.69 4.091-3.25 7.519-7.94 10.286-14.08h14.978c-3.007 10.23-8.241 18.11-15.7 23.64-7.458 5.54-16.421 8.3-26.887 8.3-8.061 0-15.219-1.68-21.474-5.05-6.136-3.37-10.888-8.06-14.256-14.08-3.369-6.01-5.053-12.93-5.053-20.75 0-9.74 2.045-18.76 6.135-27.07 4.091-8.297 9.925-14.914 17.504-19.846 7.7-4.932 16.723-7.399 27.069-7.399Zm20.932 37.715c.121-.84.181-1.92.181-3.25 0-6.73-2.045-11.97-6.136-15.697-4.09-3.85-9.684-5.775-16.782-5.775-7.579 0-14.196 2.286-19.85 6.857-5.534 4.575-9.263 10.525-11.188 17.865h53.775Zm42.703-70.918h14.798L729.44 1072h-14.797l22.376-126.318Zm87.221 34.286h15.88L789.412 1072h-17.865l-18.226-92.032h15.519l14.437 75.072 40.963-75.072Zm48.304 93.112c-7.82 0-14.797-1.68-20.933-5.05-6.015-3.49-10.707-8.24-14.075-14.26-3.369-6.01-5.053-12.81-5.053-20.39 0-10.34 2.165-19.67 6.496-27.97 4.331-8.299 10.407-14.795 18.226-19.487 7.82-4.692 16.783-7.038 26.888-7.038 7.82 0 14.737 1.745 20.752 5.234 6.136 3.368 10.888 8.06 14.256 14.075 3.369 6.016 5.053 12.816 5.053 20.396 0 10.34-2.165 19.67-6.496 27.97-4.331 8.3-10.406 14.79-18.226 19.49-7.82 4.69-16.782 7.03-26.888 7.03Zm.722-13.17c6.977 0 13.173-1.8 18.587-5.41 5.534-3.73 9.804-8.67 12.812-14.8 3.008-6.26 4.511-13.05 4.511-20.39 0-8.06-2.406-14.62-7.218-19.672-4.812-5.053-11.008-7.579-18.587-7.579-6.977 0-13.233 1.864-18.767 5.594-5.414 3.607-9.624 8.537-12.632 14.797-3.007 6.14-4.511 12.87-4.511 20.21 0 8.06 2.346 14.62 7.038 19.67 4.812 5.05 11.067 7.58 18.767 7.58Zm63.126-98.924h21.826l-.917 4.952h-8.162l-3.485 19.717h-5.502l3.485-19.717h-8.162l.917-4.952Zm24.669 0h7.428l4.769 17.974 11.28-17.974h7.612l-4.402 24.669h-5.136l3.393-18.617-11.555 18.617h-4.493l-4.769-18.617-3.393 18.617h-5.136l4.402-24.669Z"/><defs><linearGradient id="a" x1="750" x2="750" y1="0" y2="2000" gradientUnits="userSpaceOnUse"><stop stop-color="#000201"/><stop offset="1" stop-color="#454F58"/></linearGradient></defs></svg>